# xmcd
# 
# Track frame offsets:
#     197
#     13017
#     27522
#     40390
#     51760
#     62847
#     76892
#     88287
#     107687
#     123322
#     137502
#     151632
#     174267
#     193177
#     205812
#     222222
#     237220
#     250857
#     265200
#     270287
#     271900
# 
# Disc length: 3687
# 
# Revision: 3
# Processed by: cddbd v1.5.2PL0 Copyright (c) Steve Scherf et al.
# Submitted via: BonkEnc v1.0.6
# 
DISCID=1e0e6515
DTITLE=Roky Erickson - You're Gonna Miss Me-best Of
DYEAR=0
DGENRE=Blues
TTITLE0=Don't Shake Me Lucifer
TTITLE1=Bermuda
TTITLE2=Nothing In Return
TTITLE3=Click Your Fingers Applauding the Play
TTITLE4=I Am
TTITLE5=I Have Always Been Here Before
TTITLE6=White Faces
TTITLE7=Night of the Vampire
TTITLE8=Don't Slander Me
TTITLE9=Starry Eyes
TTITLE10=If You Have Ghosts
TTITLE11=Can't Be Brought Down
TTITLE12=Creature With the Atom Brain
TTITLE13=I Walked With A Zombie
TTITLE14=The Interpreter
TTITLE15=Two Headed Dog (Red Temple Prayer)
TTITLE16=You're Gonna Miss Me (Live)
TTITLE17=Wake Up to Rock and Roll (Live)
TTITLE18=Gonna Die More (Live)
TTITLE19=I'm A Demon
TTITLE20=Leave My Kitten Alone
EXTD=DISC: 1\nUPC: 01877725322\nLABEL: Bmg/restless\nENSORECORD: 61743\n
EXTT0=PERFORMER: Erickson, Roky\n
EXTT1=PERFORMER: Erickson, Roky\n
EXTT2=PERFORMER: Erickson, Roky\n
EXTT3=PERFORMER: Erickson, Roky\n
EXTT4=PERFORMER: Erickson, Roky\n
EXTT5=PERFORMER: Erickson, Roky\n
EXTT6=PERFORMER: Erickson, Roky\n
EXTT7=PERFORMER: Erickson, Roky\n
EXTT8=PERFORMER: Erickson, Roky\n
EXTT9=PERFORMER: Erickson, Roky\n
EXTT10=PERFORMER: Erickson, Roky\n
EXTT11=PERFORMER: Erickson, Roky\n
EXTT12=PERFORMER: Erickson, Roky\n
EXTT13=PERFORMER: Erickson, Roky\n
EXTT14=PERFORMER: Erickson, Roky\n
EXTT15=PERFORMER: Erickson, Roky\n
EXTT16=PERFORMER: Erickson, Roky\n
EXTT17=PERFORMER: Erickson, Roky\n
EXTT18=PERFORMER: Erickson, Roky\n
EXTT19=PERFORMER: Erickson, Roky\n
EXTT20=PERFORMER: Erickson, Roky\n
PLAYORDER=
